<svg width="115" height="119" viewBox="0 0 115 119" fill="none" xmlns="http://www.w3.org/2000/svg">
<path d="M59.5 8C68.0331 8 75.1267 14.1627 76.5736 22.28C83.3364 17.5629 92.7107 18.2215 98.7446 24.2554C104.778 30.2893 105.437 39.6632 100.72 46.4259C108.837 47.8733 115 54.9669 115 63.5C115 72.0331 108.837 79.1267 100.72 80.5736C105.437 87.3364 104.778 96.7107 98.7446 102.745C92.7107 108.778 83.3364 109.437 76.5736 104.72C75.1267 112.837 68.0331 119 59.5 119C50.9669 119 43.8728 112.837 42.4259 104.72C35.6632 109.437 26.2893 108.778 20.2554 102.745C14.2215 96.7107 13.5629 87.3364 18.28 80.5736C10.1627 79.1267 4 72.0331 4 63.5C4 54.9669 10.1627 47.8733 18.28 46.4259C13.5633 39.6632 14.2215 30.2893 20.2554 24.2554C26.2893 18.2215 35.6632 17.5629 42.4259 22.28C43.8733 14.1627 50.9669 8 59.5 8Z" fill="#A4453D"/>
<path d="M55.5 0C64.0331 0 71.1267 6.16267 72.5736 14.28C79.3364 9.56291 88.7107 10.2215 94.7446 16.2554C100.778 22.2893 101.437 31.6632 96.72 38.4259C104.837 39.8733 111 46.9669 111 55.5C111 64.0331 104.837 71.1267 96.7196 72.5736C101.437 79.3364 100.778 88.7107 94.7446 94.7446C88.7107 100.778 79.3364 101.437 72.5736 96.7196C71.1267 104.837 64.0331 111 55.5 111C46.9669 111 39.8728 104.837 38.4259 96.7196C31.6632 101.437 22.2893 100.778 16.2554 94.7446C10.2215 88.7107 9.56291 79.3364 14.28 72.5736C6.16267 71.1267 0 64.0331 0 55.5C0 46.9669 6.16267 39.8733 14.28 38.4259C9.56334 31.6632 10.2215 22.2893 16.2554 16.2554C22.2893 10.2215 31.6632 9.56291 38.4259 14.28C39.8733 6.16267 46.9669 0 55.5 0Z" fill="#BC4237"/>
</svg>
