<svg width="115" height="64" viewBox="0 0 115 64" fill="none" xmlns="http://www.w3.org/2000/svg">
<path d="M59.5 -47C68.0331 -47 75.1267 -40.8373 76.5736 -32.72C83.3364 -37.4371 92.7107 -36.7785 98.7446 -30.7446C104.778 -24.7107 105.437 -15.3368 100.72 -8.57405C108.837 -7.12672 115 -0.0331268 115 8.5C115 17.0331 108.837 24.1267 100.72 25.5736C105.437 32.3364 104.778 41.7107 98.7446 47.7446C92.7107 53.7785 83.3364 54.4367 76.5736 49.7196C75.1267 57.8373 68.0331 64 59.5 64C50.9669 64 43.8728 57.8373 42.4259 49.7196C35.6632 54.4367 26.2893 53.7785 20.2554 47.7446C14.2215 41.7107 13.5629 32.3364 18.28 25.5736C10.1627 24.1267 4 17.0331 4 8.5C4 -0.0331268 10.1627 -7.12672 18.28 -8.57405C13.5633 -15.3368 14.2215 -24.7107 20.2554 -30.7446C26.2893 -36.7785 35.6632 -37.4371 42.4259 -32.72C43.8733 -40.8373 50.9669 -47 59.5 -47Z" fill="#A4453D"/>
<path d="M55.5 -55C64.0331 -55 71.1267 -48.8373 72.5736 -40.72C79.3364 -45.4371 88.7107 -44.7785 94.7446 -38.7446C100.778 -32.7107 101.437 -23.3368 96.72 -16.5741C104.837 -15.1267 111 -8.03313 111 0.5C111 9.03313 104.837 16.1267 96.7196 17.5736C101.437 24.3364 100.778 33.7107 94.7446 39.7446C88.7107 45.7785 79.3364 46.4367 72.5736 41.7196C71.1267 49.8373 64.0331 56 55.5 56C46.9669 56 39.8728 49.8373 38.4259 41.7196C31.6632 46.4367 22.2893 45.7785 16.2554 39.7446C10.2215 33.7107 9.56291 24.3364 14.28 17.5736C6.16267 16.1267 0 9.03313 0 0.5C0 -8.03313 6.16267 -15.1267 14.28 -16.5741C9.56334 -23.3368 10.2215 -32.7107 16.2554 -38.7446C22.2893 -44.7785 31.6632 -45.4371 38.4259 -40.72C39.8733 -48.8373 46.9669 -55 55.5 -55Z" fill="#BC4237"/>
</svg>
