<svg width="223" height="118" viewBox="0 0 223 118" fill="none" xmlns="http://www.w3.org/2000/svg">
<path d="M-20.05 0C17.3189 0 48.3837 20.3808 54.7201 47.2258C84.3361 31.6258 125.389 33.804 151.813 53.7589C178.237 73.7138 181.119 104.714 160.464 127.08C196.012 131.866 223 155.326 223 183.546C223 211.766 196.012 235.226 160.462 240.011C181.119 262.376 178.237 293.378 151.813 313.333C125.389 333.288 84.3361 335.465 54.7201 319.865C48.3837 346.711 17.3189 367.092 -20.05 367.092C-57.4189 367.092 -88.4855 346.711 -94.8219 319.865C-124.438 335.465 -165.489 333.288 -191.913 313.333C-218.337 293.378 -221.221 262.376 -200.564 240.011C-236.112 235.226 -263.1 211.766 -263.1 183.546C-263.1 155.326 -236.112 131.866 -200.564 127.08C-221.219 104.714 -218.337 73.7138 -191.913 53.7589C-165.489 33.804 -124.438 31.6258 -94.8219 47.2258C-88.4836 20.3808 -57.4189 0 -20.05 0Z" fill="#73442F"/>
<path d="M-31.9503 15.5625C5.41852 15.5625 36.4833 35.9433 42.8197 62.7883C72.4357 47.1883 113.488 49.3665 139.912 69.3214C166.336 89.2763 169.219 120.277 148.563 142.642C184.111 147.429 211.099 170.888 211.099 199.108C211.099 227.329 184.111 250.788 148.561 255.573C169.219 277.939 166.336 308.941 139.912 328.896C113.488 348.85 72.4357 351.027 42.8197 335.427C36.4833 362.274 5.41852 382.654 -31.9503 382.654C-69.3192 382.654 -100.386 362.274 -106.722 335.427C-136.338 351.027 -177.389 348.85 -203.813 328.896C-230.237 308.941 -233.121 277.939 -212.464 255.573C-248.012 250.788 -275 227.329 -275 199.108C-275 170.888 -248.012 147.429 -212.464 142.642C-233.12 120.277 -230.237 89.2763 -203.813 69.3214C-177.389 49.3665 -136.338 47.1883 -106.722 62.7883C-100.384 35.9433 -69.3192 15.5625 -31.9503 15.5625Z" fill="#47281A"/>
</svg>
