<svg xmlns="http://www.w3.org/2000/svg" width="204" height="98" viewBox="0 0 204 98" fill="none">
  <path d="M102 -106C117.683 -106 130.719 -94.674 133.379 -79.7557C145.807 -88.4249 163.036 -87.2145 174.125 -76.1252C185.214 -65.0358 186.424 -47.8082 177.756 -35.3793C192.674 -32.7194 204 -19.6825 204 -4C204 11.6825 192.674 24.7194 177.755 27.3785C186.424 39.8074 185.214 57.0358 174.125 68.1252C163.036 79.2145 145.807 80.4241 133.379 71.7549C130.719 86.674 117.683 98 102 98C86.3175 98 73.2798 86.674 70.6207 71.7549C58.1918 80.4241 40.9642 79.2145 29.8748 68.1252C18.7855 57.0358 17.5751 39.8074 26.2443 27.3785C11.326 24.7194 0 11.6825 0 -4C0 -19.6825 11.326 -32.7194 26.2443 -35.3793C17.5759 -47.8082 18.7855 -65.0358 29.8748 -76.1252C40.9642 -87.2145 58.1918 -88.4249 70.6207 -79.7557C73.2806 -94.674 86.3175 -106 102 -106Z" fill="#73442F"/>
  <path d="M102 -117C117.683 -117 130.719 -105.674 133.379 -90.7557C145.807 -99.4249 163.036 -98.2145 174.125 -87.1252C185.214 -76.0358 186.424 -58.8082 177.756 -46.3793C192.674 -43.7194 204 -30.6825 204 -15C204 0.682503 192.674 13.7194 177.755 16.3785C186.424 28.8074 185.214 46.0358 174.125 57.1252C163.036 68.2145 145.807 69.4241 133.379 60.7549C130.719 75.674 117.683 87 102 87C86.3175 87 73.2798 75.674 70.6207 60.7549C58.1918 69.4241 40.9642 68.2145 29.8748 57.1252C18.7855 46.0358 17.5751 28.8074 26.2443 16.3785C11.326 13.7194 0 0.682503 0 -15C0 -30.6825 11.326 -43.7194 26.2443 -46.3793C17.5759 -58.8082 18.7855 -76.0358 29.8748 -87.1252C40.9642 -98.2145 58.1918 -99.4249 70.6207 -90.7557C73.2806 -105.674 86.3175 -117 102 -117Z" fill="#47281A"/>
</svg>