<svg xmlns="http://www.w3.org/2000/svg" width="157" height="93" viewBox="0 0 157 93" fill="none">
  <path d="M75 0C86.5312 0 96.1172 8.32793 98.0725 19.2973C107.211 12.9229 119.879 13.8129 128.033 21.9668C136.187 30.1207 137.077 42.7881 130.703 51.927C141.672 53.8828 150 63.4688 150 75C150 86.5312 141.672 96.1172 130.702 98.0725C137.077 107.211 136.187 119.879 128.033 128.033C119.879 136.187 107.211 137.077 98.0725 130.702C96.1172 141.672 86.5312 150 75 150C63.4688 150 53.8822 141.672 51.927 130.702C42.7881 137.077 30.1207 136.187 21.9668 128.033C13.8129 119.879 12.9229 107.211 19.2973 98.0725C8.32793 96.1172 0 86.5312 0 75C0 63.4688 8.32793 53.8828 19.2973 51.927C12.9234 42.7881 13.8129 30.1207 21.9668 21.9668C30.1207 13.8129 42.7881 12.9229 51.927 19.2973C53.8828 8.32793 63.4688 0 75 0Z" fill="#73442F"/>
  <path d="M82 6C93.5312 6 103.117 14.3279 105.072 25.2973C114.211 18.9229 126.879 19.8129 135.033 27.9668C143.187 36.1207 144.077 48.7881 137.703 57.927C148.672 59.8828 157 69.4688 157 81C157 92.5312 148.672 102.117 137.702 104.072C144.077 113.211 143.187 125.879 135.033 134.033C126.879 142.187 114.211 143.077 105.072 136.702C103.117 147.672 93.5312 156 82 156C70.4688 156 60.8822 147.672 58.927 136.702C49.7881 143.077 37.1207 142.187 28.9668 134.033C20.8129 125.879 19.9229 113.211 26.2973 104.072C15.3279 102.117 7 92.5312 7 81C7 69.4688 15.3279 59.8828 26.2973 57.927C19.9234 48.7881 20.8129 36.1207 28.9668 27.9668C37.1207 19.8129 49.7881 18.9229 58.927 25.2973C60.8828 14.3279 70.4688 6 82 6Z" fill="#47281A"/>
</svg>